<svg width="21" height="20" viewBox="0 0 21 20" fill="none" xmlns="http://www.w3.org/2000/svg">
<path d="M20.2323 10.1876C20.2323 11.1718 18.6529 11.8933 18.3658 12.7814C18.0682 13.7018 18.9135 15.2162 18.3585 15.9823C17.7979 16.7563 16.0993 16.4137 15.3291 16.9767C14.5665 17.5343 14.3689 19.2662 13.4527 19.5651C12.5688 19.8533 11.3996 18.5783 10.4199 18.5783C9.44016 18.5783 8.27105 19.8533 7.38707 19.5649C6.47089 19.2662 6.27335 17.5343 5.51069 16.9765C4.74051 16.4133 3.04148 16.7561 2.48129 15.9821C1.92626 15.216 2.77158 13.7015 2.47399 12.7812C2.18692 11.8933 0.607483 11.1718 0.607483 10.1876C0.607483 9.20336 2.18692 8.48184 2.47399 7.59381C2.77158 6.67342 1.92626 5.159 2.48129 4.39284C3.04191 3.61891 4.74051 3.96144 5.51069 3.39846C6.27335 2.84088 6.47089 1.10903 7.38707 0.810074C8.27105 0.5219 9.44016 1.7969 10.4199 1.7969C11.3996 1.7969 12.5688 0.5219 13.4527 0.81029C14.3689 1.10903 14.5665 2.84088 15.3291 3.39868C16.0993 3.96187 17.7983 3.61912 18.3585 4.39305C18.9135 5.15921 18.0682 6.67364 18.3658 7.59403C18.6529 8.48184 20.2323 9.20336 20.2323 10.1876Z" fill="#562E08"/>
<path d="M10.5424 5.36784L7.71753 10.6855C7.68655 10.7439 7.67116 10.8093 7.67286 10.8754C7.67455 10.9414 7.69326 11.006 7.72719 11.0627C7.76112 11.1194 7.8091 11.1664 7.8665 11.1991C7.92389 11.2318 7.98875 11.2491 8.05479 11.2493H9.5397C9.59004 11.2493 9.63989 11.2592 9.68641 11.2784C9.73293 11.2977 9.77519 11.3259 9.8108 11.3616C9.84641 11.3972 9.87465 11.4395 9.89392 11.486C9.91319 11.5326 9.92311 11.5825 9.92311 11.6329V14.8274C9.92311 15.2224 10.4476 15.3597 10.6406 15.015L13.5899 9.74829C13.6225 9.68992 13.6393 9.62404 13.6387 9.55717C13.638 9.49029 13.6199 9.42475 13.5862 9.36704C13.5524 9.30933 13.5042 9.26144 13.4462 9.22814C13.3883 9.19483 13.3227 9.17725 13.2559 9.17715L11.6461 9.17542C11.5446 9.17525 11.4472 9.13477 11.3755 9.06286C11.3037 8.99096 11.2634 8.89349 11.2633 8.79186V5.54808C11.264 5.14832 10.7298 5.01514 10.5424 5.36784Z" fill="white"/>
</svg>
